<svg xmlns="http://www.w3.org/2000/svg" viewBox="0 0 240 300" width="480" height="600"><defs>
<radialGradient id="gl" cx="0.5" cy="0.5" r="0.5"><stop offset="0" stop-color="#8CFF5A" stop-opacity="0.75"/><stop offset="1" stop-color="#8CFF5A" stop-opacity="0"/></radialGradient>
<linearGradient id="tun" x1="0" y1="0" x2="1" y2="1"><stop offset="0" stop-color="#5B8DEF"/><stop offset="1" stop-color="#1B1540"/></linearGradient>
<linearGradient id="cape" x1="0" y1="0" x2="0" y2="1"><stop offset="0" stop-color="#FFD23F"/><stop offset="1" stop-color="#B8742A"/></linearGradient>
<linearGradient id="gold" x1="0" y1="0" x2="1" y2="1"><stop offset="0" stop-color="#FFF4C9"/><stop offset="0.5" stop-color="#E8AE45"/><stop offset="1" stop-color="#8A5516"/></linearGradient>
<linearGradient id="ped" x1="0" y1="0" x2="0" y2="1"><stop offset="0" stop-color="#2E2670"/><stop offset="1" stop-color="#120E2E"/></linearGradient>
<filter id="bl"><feGaussianBlur stdDeviation="3"/></filter>
</defs><ellipse cx="120" cy="170" rx="70" ry="100" fill="url(#gl)"/><path d="M60 262 L120 240 L180 262 L120 284 Z" fill="#3A3270"/><path d="M60 262 L120 284 L120 296 L60 274 Z" fill="#1B1540"/><path d="M180 262 L120 284 L120 296 L180 274 Z" fill="#120E2E"/><path d="M72 262 L120 245 L168 262 L120 279 Z" fill="none" stroke="#8CFF5A" stroke-width="2" opacity="0.9"/><rect x="88" y="134" width="64" height="66" rx="12" fill="#8A5422"/><rect x="94" y="140" width="52" height="16" rx="5" fill="#A5682A"/><rect x="100" y="200" width="16" height="44" rx="6" fill="#2B2766"/><rect x="124" y="200" width="16" height="44" rx="6" fill="#2B2766"/><path d="M96 236 h22 v12 h-26 q0 -8 4 -12z" fill="#5A3214"/><path d="M122 236 h22 q4 4 4 12 h-26z" fill="#5A3214"/><path d="M94 140 Q120 130 146 140 L152 206 Q120 214 88 206 Z" fill="url(#tun)"/><path d="M120 138 L120 210" stroke="#000" stroke-width="1" opacity="0.15"/><rect x="90" y="184" width="60" height="9" rx="3" fill="#3A2410"/><rect x="114" y="183" width="12" height="11" rx="2" fill="#FFD23F"/><rect x="76" y="144" width="15" height="48" rx="7" fill="#5B8DEF" transform="rotate(10 83 148)"/><rect x="149" y="144" width="15" height="46" rx="7" fill="#5B8DEF" transform="rotate(-22 156 148)"/><circle cx="79" cy="194" r="8" fill="#FFCFA8"/><circle cx="172" cy="186" r="8" fill="#FFCFA8"/><rect x="164" y="176" width="20" height="26" rx="2" fill="#FFF8EA" stroke="#C9B48A" stroke-width="1.5" transform="rotate(-12 174 189)"/><path d="M168 184 h12 M168 189 h10 M168 194 h12" stroke="#C9B48A" stroke-width="1.2" transform="rotate(-12 174 189)"/><circle cx="120" cy="104" r="34" fill="#FFCFA8"/><ellipse cx="86" cy="106" rx="5" ry="7" fill="#FFCFA8"/><ellipse cx="154" cy="106" rx="5" ry="7" fill="#FFCFA8"/><path d="M86 102 Q84 66 120 64 Q158 66 154 102 Q148 84 132 82 Q124 92 104 90 Q92 92 86 102 Z" fill="#2A1F4A"/><path d="M104 70 Q112 64 124 66" stroke="#fff" stroke-width="2.5" opacity="0.25" fill="none" stroke-linecap="round"/><ellipse cx="107" cy="108" rx="5" ry="6.5" fill="#1B1540"/><ellipse cx="133" cy="108" rx="5" ry="6.5" fill="#1B1540"/><circle cx="108.8" cy="105.6" r="1.9" fill="#fff"/><circle cx="134.8" cy="105.6" r="1.9" fill="#fff"/><ellipse cx="99" cy="119" rx="5" ry="3" fill="#FF8AC0" opacity="0.55"/><ellipse cx="141" cy="119" rx="5" ry="3" fill="#FF8AC0" opacity="0.55"/><path d="M113 121 Q120 127 127 121" fill="none" stroke="#8A3B3B" stroke-width="2.4" stroke-linecap="round"/><path d="M175.1 180.2 q0.8 3.0 3.8 3.8 q-3.0 0.8 -3.8 3.8 q-0.8 -3.0 -3.8 -3.8 q3.0 -0.8 3.8 -3.8z" fill="#ffffff"/><path d="M81.4 133.4 q0.7 3.0 3.7 3.7 q-3.0 0.7 -3.7 3.7 q-0.7 -3.0 -3.7 -3.7 q3.0 -0.7 3.7 -3.7z" fill="#8CFF5A"/><path d="M165.4 93.7 q0.8 3.1 3.9 3.9 q-3.1 0.8 -3.9 3.9 q-0.8 -3.1 -3.9 -3.9 q3.1 -0.8 3.9 -3.9z" fill="#ffffff"/></svg>