<svg xmlns="http://www.w3.org/2000/svg" viewBox="0 0 128 128" width="256" height="256"><defs>
<linearGradient id="metal" x1="0" y1="0" x2="1" y2="1">
<stop offset="0" stop-color="#EAF6FF"/><stop offset="0.22" stop-color="#8FB8D8"/><stop offset="0.5" stop-color="#2E4D6B"/><stop offset="0.72" stop-color="#CFE4F5"/><stop offset="1" stop-color="#365A7C"/></linearGradient>
<radialGradient id="bg" cx="0.5" cy="0.42" r="0.75"><stop offset="0" stop-color="#3FA9FF" stop-opacity="0.75"/><stop offset="0.45" stop-color="#06203F"/><stop offset="1" stop-color="#05030C"/></radialGradient>
<radialGradient id="glow" cx="0.5" cy="0.5" r="0.5"><stop offset="0" stop-color="#B5E2FF" stop-opacity="0.9"/><stop offset="0.4" stop-color="#3FA9FF" stop-opacity="0.45"/><stop offset="1" stop-color="#3FA9FF" stop-opacity="0"/></radialGradient>
<radialGradient id="gem" cx="0.35" cy="0.3" r="0.8"><stop offset="0" stop-color="#FFFFFF"/><stop offset="0.3" stop-color="#B5E2FF"/><stop offset="0.7" stop-color="#3FA9FF"/><stop offset="1" stop-color="#06203F"/></radialGradient>
<linearGradient id="shine" x1="0" y1="0" x2="0" y2="1"><stop offset="0" stop-color="#FFFFFF" stop-opacity="0.35"/><stop offset="0.5" stop-color="#FFFFFF" stop-opacity="0"/></linearGradient>
<filter id="soft" x="-30%" y="-30%" width="160%" height="160%"><feGaussianBlur stdDeviation="2.2"/></filter>
<filter id="drop" x="-30%" y="-30%" width="160%" height="160%"><feDropShadow dx="0" dy="3" stdDeviation="2.5" flood-color="#000" flood-opacity="0.65"/></filter>
<clipPath id="inner"><rect x="10" y="10" width="108" height="108" rx="6"/></clipPath>
<linearGradient id="slate" x1="0" y1="0" x2="0" y2="1"><stop offset="0" stop-color="#3B4E6E"/><stop offset="1" stop-color="#121A2C"/></linearGradient>
<linearGradient id="stripe" x1="0" y1="0" x2="1" y2="0"><stop offset="0" stop-color="#EAF6FF"/><stop offset="1" stop-color="#8FC9FF"/></linearGradient>
</defs>
<rect width="128" height="128" rx="14" fill="#07050F"/>
<g clip-path="url(#inner)"><rect x="10" y="10" width="108" height="108" fill="url(#bg)"/><path d="M64 52 L-40 0 L-30 0 Z" fill="#FFFFFF" opacity="0.05"/><path d="M64 52 L-14 0 L-4 0 Z" fill="#FFFFFF" opacity="0.05"/><path d="M64 52 L12 0 L22 0 Z" fill="#FFFFFF" opacity="0.05"/><path d="M64 52 L38 0 L48 0 Z" fill="#FFFFFF" opacity="0.05"/><path d="M64 52 L64 0 L74 0 Z" fill="#FFFFFF" opacity="0.05"/><path d="M64 52 L90 0 L100 0 Z" fill="#FFFFFF" opacity="0.05"/><path d="M64 52 L116 0 L126 0 Z" fill="#FFFFFF" opacity="0.05"/><path d="M64 52 L142 0 L152 0 Z" fill="#FFFFFF" opacity="0.05"/><path d="M64 52 L168 0 L178 0 Z" fill="#FFFFFF" opacity="0.05"/>
<circle cx="64" cy="60" r="44" fill="url(#glow)" opacity="0.7"/>
<rect x="10" y="92" width="108" height="26" fill="#000" opacity="0.28"/></g><g clip-path="url(#inner)">
<g filter="url(#drop)">
<rect x="24" y="52" width="80" height="54" rx="5" fill="url(#slate)" stroke="#8FB8D8" stroke-width="1.5"/>
<rect x="24" y="52" width="80" height="14" fill="#0B1222"/>
<g clip-path="url(#inner)">
<path d="M24 52 h80 v14 h-80 Z" fill="#0B1222"/>
<path d="M28 66 L36 52 H46 L38 66 Z M50 66 L58 52 H68 L60 66 Z M72 66 L80 52 H90 L82 66 Z M94 66 L102 52 H104 V60 L100 66 Z" fill="url(#stripe)"/>
</g>
<g transform="rotate(-16 26 46)">
<rect x="24" y="34" width="80" height="13" rx="2" fill="#0B1222" stroke="#8FB8D8" stroke-width="1.2"/>
<path d="M28 47 L36 34 H46 L38 47 Z M50 47 L58 34 H68 L60 47 Z M72 47 L80 34 H90 L82 47 Z M94 47 L102 34 H104 V41 L100 47 Z" fill="url(#stripe)"/>
</g>
<circle cx="28" cy="49" r="4" fill="url(#metal)" stroke="#0B1222" stroke-width="1"/>
<path d="M34 76 H70 M34 84 H60 M34 92 H66" stroke="#8FC9FF" stroke-width="2" stroke-linecap="round" opacity="0.6"/>
<circle cx="88" cy="86" r="10" fill="url(#gem)" stroke="#0B1222" stroke-width="1"/>
<path d="M85 81 L93 86 L85 91 Z" fill="#06203F"/>
</g>
<path d="M104 22 Q105.08 26.92 110 28 Q105.08 29.08 104 34 Q102.92 29.08 98 28 Q102.92 26.92 104 22 Z" fill="#B5E2FF" opacity="1"/><path d="M20 30.5 Q20.63 33.37 23.5 34 Q20.63 34.63 20 37.5 Q19.37 34.63 16.5 34 Q19.37 33.37 20 30.5 Z" fill="#EAF6FF" opacity="1"/></g><rect x="10" y="10" width="108" height="108" rx="6" fill="none" stroke="#3FA9FF" stroke-width="2" opacity="0.95"/>
<rect x="10" y="10" width="108" height="108" rx="6" fill="none" stroke="#B5E2FF" stroke-width="5" opacity="0.25" filter="url(#soft)"/>
<rect x="4" y="4" width="120" height="120" rx="11" fill="none" stroke="url(#metal)" stroke-width="7"/>
<rect x="1" y="1" width="126" height="126" rx="13.5" fill="none" stroke="#000" stroke-width="1.5" opacity="0.8"/>
<rect x="7.6" y="7.6" width="112.8" height="112.8" rx="7.5" fill="none" stroke="#000" stroke-width="1" opacity="0.7"/>
<rect x="10" y="10" width="108" height="54" rx="6" fill="url(#shine)" opacity="0.5"/>
<g transform="translate(10 10)"><path d="M0 -8 L8 0 L0 8 L-8 0 Z" fill="url(#metal)" stroke="#1A1208" stroke-width="1"/><path d="M0 -4.5 L4.5 0 L0 4.5 L-4.5 0 Z" fill="url(#gem)"/><circle cx="-1.2" cy="-1.6" r="1.1" fill="#fff" opacity="0.9"/></g><g transform="translate(118 10)"><path d="M0 -8 L8 0 L0 8 L-8 0 Z" fill="url(#metal)" stroke="#1A1208" stroke-width="1"/><path d="M0 -4.5 L4.5 0 L0 4.5 L-4.5 0 Z" fill="url(#gem)"/><circle cx="-1.2" cy="-1.6" r="1.1" fill="#fff" opacity="0.9"/></g><g transform="translate(10 118)"><path d="M0 -8 L8 0 L0 8 L-8 0 Z" fill="url(#metal)" stroke="#1A1208" stroke-width="1"/><path d="M0 -4.5 L4.5 0 L0 4.5 L-4.5 0 Z" fill="url(#gem)"/><circle cx="-1.2" cy="-1.6" r="1.1" fill="#fff" opacity="0.9"/></g><g transform="translate(118 118)"><path d="M0 -8 L8 0 L0 8 L-8 0 Z" fill="url(#metal)" stroke="#1A1208" stroke-width="1"/><path d="M0 -4.5 L4.5 0 L0 4.5 L-4.5 0 Z" fill="url(#gem)"/><circle cx="-1.2" cy="-1.6" r="1.1" fill="#fff" opacity="0.9"/></g><g transform="translate(64 6) rotate(0)"><path d="M-12 0 Q-6 -3 0 -4 Q6 -3 12 0 Q6 2 0 2.5 Q-6 2 -12 0 Z" fill="url(#metal)" stroke="#1A1208" stroke-width="0.8"/><circle cx="0" cy="-0.6" r="1.6" fill="#B5E2FF"/></g><g transform="translate(64 122) rotate(180)"><path d="M-12 0 Q-6 -3 0 -4 Q6 -3 12 0 Q6 2 0 2.5 Q-6 2 -12 0 Z" fill="url(#metal)" stroke="#1A1208" stroke-width="0.8"/><circle cx="0" cy="-0.6" r="1.6" fill="#B5E2FF"/></g><g transform="translate(6 64) rotate(270)"><path d="M-12 0 Q-6 -3 0 -4 Q6 -3 12 0 Q6 2 0 2.5 Q-6 2 -12 0 Z" fill="url(#metal)" stroke="#1A1208" stroke-width="0.8"/><circle cx="0" cy="-0.6" r="1.6" fill="#B5E2FF"/></g><g transform="translate(122 64) rotate(90)"><path d="M-12 0 Q-6 -3 0 -4 Q6 -3 12 0 Q6 2 0 2.5 Q-6 2 -12 0 Z" fill="url(#metal)" stroke="#1A1208" stroke-width="0.8"/><circle cx="0" cy="-0.6" r="1.6" fill="#B5E2FF"/></g></svg>