<svg xmlns="http://www.w3.org/2000/svg" viewBox="0 -30 260 350"><defs><radialGradient id="tv2-r1"><stop offset="0" stop-color="#b9f26b" stop-opacity="0.4"/><stop offset="1" stop-color="#b9f26b" stop-opacity="0"/></radialGradient><linearGradient id="tv2-g2" x1="0" y1="0" x2="0" y2="1"><stop offset="0" stop-color="#2d5770"/><stop offset="1" stop-color="#19384b"/></linearGradient><linearGradient id="tv2-g3" x1="0" y1="0" x2="0" y2="1"><stop offset="0" stop-color="#1d4257"/><stop offset="1" stop-color="#142d3b"/></linearGradient><linearGradient id="tv2-g4" x1="0" y1="0" x2="0" y2="1"><stop offset="0" stop-color="#456b81"/><stop offset="1" stop-color="#1c3f53"/></linearGradient><linearGradient id="tv2-g5" x1="0" y1="0" x2="0" y2="1"><stop offset="0" stop-color="#20485f"/><stop offset="1" stop-color="#163141"/></linearGradient><linearGradient id="tv2-g6" x1="0" y1="0" x2="0" y2="1"><stop offset="0" stop-color="#396178"/><stop offset="1" stop-color="#1b3c4f"/></linearGradient><linearGradient id="tv2-g7" x1="0" y1="0" x2="0" y2="1"><stop offset="0" stop-color="#163343"/><stop offset="1" stop-color="#0f222e"/></linearGradient><linearGradient id="tv2-g8" x1="0" y1="0" x2="0" y2="1"><stop offset="0" stop-color="#132a37"/><stop offset="1" stop-color="#0c1c26"/></linearGradient><linearGradient id="tv2-g9" x1="0" y1="0" x2="0" y2="1"><stop offset="0" stop-color="#183648"/><stop offset="1" stop-color="#102531"/></linearGradient><linearGradient id="tv2-g10" x1="0" y1="0" x2="0" y2="1"><stop offset="0" stop-color="#153040"/><stop offset="1" stop-color="#0e212b"/></linearGradient><radialGradient id="tv2-r11"><stop offset="0" stop-color="#4df3ff" stop-opacity="0.45"/><stop offset="1" stop-color="#4df3ff" stop-opacity="0"/></radialGradient><radialGradient id="tv2-r12"><stop offset="0" stop-color="#4df3ff" stop-opacity="0.45"/><stop offset="1" stop-color="#4df3ff" stop-opacity="0"/></radialGradient><radialGradient id="tv2-r13"><stop offset="0" stop-color="#4df3ff" stop-opacity="0.45"/><stop offset="1" stop-color="#4df3ff" stop-opacity="0"/></radialGradient><radialGradient id="tv2-r14"><stop offset="0" stop-color="#70f5ff" stop-opacity="0.45"/><stop offset="1" stop-color="#70f5ff" stop-opacity="0"/></radialGradient><linearGradient id="tv2-g15" x1="0" y1="0" x2="0" y2="1"><stop offset="0" stop-color="#54768a"/><stop offset="1" stop-color="#24506a"/></linearGradient><linearGradient id="tv2-g16" x1="0" y1="0" x2="0" y2="1"><stop offset="0" stop-color="#224d67"/><stop offset="1" stop-color="#1d4055"/></linearGradient><linearGradient id="tv2-g17" x1="0" y1="0" x2="0" y2="1"><stop offset="0" stop-color="#1a3a4c"/><stop offset="1" stop-color="#142c3b"/></linearGradient><linearGradient id="tv2-g18" x1="0" y1="0" x2="1" y2="1"><stop offset="0" stop-color="#c5f485"/><stop offset="1" stop-color="#aade62"/></linearGradient><linearGradient id="tv2-g19" x1="0" y1="0" x2="0" y2="1"><stop offset="0" stop-color="#8fbc53"/><stop offset="1" stop-color="#779c45"/></linearGradient><linearGradient id="tv2-g20" x1="0" y1="0" x2="0" y2="1"><stop offset="0" stop-color="#698a3d"/><stop offset="1" stop-color="#516a2f"/></linearGradient><linearGradient id="tv2-g21" x1="0" y1="0" x2="0" y2="1"><stop offset="0" stop-color="#7fe8ff"/><stop offset="1" stop-color="#2aa6d6"/></linearGradient><linearGradient id="tv2-g22" x1="0" y1="0" x2="0" y2="1"><stop offset="0" stop-color="#fff4df"/><stop offset="1" stop-color="#fff1d6"/></linearGradient><linearGradient id="tv2-g23" x1="0" y1="0" x2="0" y2="1"><stop offset="0" stop-color="#c6bba6"/><stop offset="1" stop-color="#a59c8a"/></linearGradient><linearGradient id="tv2-g24" x1="0" y1="0" x2="0" y2="1"><stop offset="0" stop-color="#91897a"/><stop offset="1" stop-color="#706a5e"/></linearGradient><linearGradient id="tv2-g25" x1="0" y1="0" x2="0" y2="1"><stop offset="0" stop-color="#cf6a58"/><stop offset="1" stop-color="#c2402a"/></linearGradient><linearGradient id="tv2-g26" x1="0" y1="0" x2="0" y2="1"><stop offset="0" stop-color="#963120"/><stop offset="1" stop-color="#7d291b"/></linearGradient><linearGradient id="tv2-g27" x1="0" y1="0" x2="0" y2="1"><stop offset="0" stop-color="#6e2418"/><stop offset="1" stop-color="#551c12"/></linearGradient><linearGradient id="tv2-g28" x1="0" y1="0" x2="0" y2="1"><stop offset="0" stop-color="#f0603f"/><stop offset="1" stop-color="#d24a30"/></linearGradient><linearGradient id="tv2-g29" x1="0" y1="0" x2="0" y2="1"><stop offset="0" stop-color="#ad8258"/><stop offset="1" stop-color="#96602a"/></linearGradient><linearGradient id="tv2-g30" x1="0" y1="0" x2="0" y2="1"><stop offset="0" stop-color="#744a20"/><stop offset="1" stop-color="#613e1b"/></linearGradient><linearGradient id="tv2-g31" x1="0" y1="0" x2="0" y2="1"><stop offset="0" stop-color="#553618"/><stop offset="1" stop-color="#422a12"/></linearGradient><linearGradient id="tv2-g32" x1="0" y1="0" x2="0" y2="1"><stop offset="0" stop-color="#b88958"/><stop offset="1" stop-color="#a5682a"/></linearGradient><linearGradient id="tv2-g33" x1="0" y1="0" x2="0" y2="1"><stop offset="0" stop-color="#805020"/><stop offset="1" stop-color="#6a431b"/></linearGradient><linearGradient id="tv2-g34" x1="0" y1="0" x2="0" y2="1"><stop offset="0" stop-color="#5e3b18"/><stop offset="1" stop-color="#482d12"/></linearGradient><linearGradient id="tv2-g35" x1="0" y1="0" x2="0" y2="1"><stop offset="0" stop-color="#ad8258"/><stop offset="1" stop-color="#96602a"/></linearGradient><linearGradient id="tv2-g36" x1="0" y1="0" x2="0" y2="1"><stop offset="0" stop-color="#744a20"/><stop offset="1" stop-color="#613e1b"/></linearGradient><linearGradient id="tv2-g37" x1="0" y1="0" x2="0" y2="1"><stop offset="0" stop-color="#553618"/><stop offset="1" stop-color="#422a12"/></linearGradient><linearGradient id="tv2-g38" x1="0" y1="0" x2="0" y2="1"><stop offset="0" stop-color="#b88958"/><stop offset="1" stop-color="#a5682a"/></linearGradient><linearGradient id="tv2-g39" x1="0" y1="0" x2="0" y2="1"><stop offset="0" stop-color="#805020"/><stop offset="1" stop-color="#6a431b"/></linearGradient><linearGradient id="tv2-g40" x1="0" y1="0" x2="0" y2="1"><stop offset="0" stop-color="#5e3b18"/><stop offset="1" stop-color="#482d12"/></linearGradient><linearGradient id="tv2-g41" x1="0" y1="0" x2="0" y2="1"><stop offset="0" stop-color="#ad8258"/><stop offset="1" stop-color="#96602a"/></linearGradient><linearGradient id="tv2-g42" x1="0" y1="0" x2="0" y2="1"><stop offset="0" stop-color="#744a20"/><stop offset="1" stop-color="#613e1b"/></linearGradient><linearGradient id="tv2-g43" x1="0" y1="0" x2="0" y2="1"><stop offset="0" stop-color="#553618"/><stop offset="1" stop-color="#422a12"/></linearGradient><linearGradient id="tv2-g44" x1="0" y1="0" x2="0" y2="1"><stop offset="0" stop-color="#b88958"/><stop offset="1" stop-color="#a5682a"/></linearGradient><linearGradient id="tv2-g45" x1="0" y1="0" x2="0" y2="1"><stop offset="0" stop-color="#805020"/><stop offset="1" stop-color="#6a431b"/></linearGradient><linearGradient id="tv2-g46" x1="0" y1="0" x2="0" y2="1"><stop offset="0" stop-color="#5e3b18"/><stop offset="1" stop-color="#482d12"/></linearGradient><linearGradient id="tv2-g47" x1="0" y1="0" x2="0" y2="1"><stop offset="0" stop-color="#74f5ff"/><stop offset="1" stop-color="#4df3ff"/></linearGradient><linearGradient id="tv2-g48" x1="0" y1="0" x2="0" y2="1"><stop offset="0" stop-color="#3bbcc6"/><stop offset="1" stop-color="#319da5"/></linearGradient><linearGradient id="tv2-g49" x1="0" y1="0" x2="0" y2="1"><stop offset="0" stop-color="#2c8a91"/><stop offset="1" stop-color="#226b70"/></linearGradient><linearGradient id="tv2-g50" x1="0" y1="0" x2="0" y2="1"><stop offset="0" stop-color="#ffdb69"/><stop offset="1" stop-color="#ffd23f"/></linearGradient><linearGradient id="tv2-g51" x1="0" y1="0" x2="0" y2="1"><stop offset="0" stop-color="#c6a330"/><stop offset="1" stop-color="#a58828"/></linearGradient><linearGradient id="tv2-g52" x1="0" y1="0" x2="0" y2="1"><stop offset="0" stop-color="#917824"/><stop offset="1" stop-color="#705c1b"/></linearGradient><radialGradient id="tv2-r53"><stop offset="0" stop-color="#ff4f9a" stop-opacity="0.32"/><stop offset="1" stop-color="#ff4f9a" stop-opacity="0"/></radialGradient><clipPath id="tv2-env"><path d="M52.4 65.6 c-28 0 -32 -38 0 -38 c32 0 28 38 0 38z"/></clipPath><linearGradient id="tv2-g54" x1="0" y1="0" x2="1" y2="0"><stop offset="0" stop-color="#ffffff"/><stop offset="1" stop-color="#000000"/></linearGradient><radialGradient id="tv2-r55"><stop offset="0" stop-color="#ffd23f" stop-opacity="0.9"/><stop offset="1" stop-color="#ffd23f" stop-opacity="0"/></radialGradient><radialGradient id="tv2-r56"><stop offset="0" stop-color="#ffffff" stop-opacity="0.5"/><stop offset="1" stop-color="#ffffff" stop-opacity="0"/></radialGradient></defs><ellipse cx="130.0" cy="215.0" rx="128" ry="70" fill="url(#tv2-r1)"/><polygon points="0.1,231.7 7.3,226.3 18.1,228.6 10.9,232.6" fill="#2e5871" /><polygon points="18.1,228.6 19.0,233.1 10.9,242.5 10.9,232.6" fill="#15303f" /><polygon points="0.1,231.7 10.9,232.6 10.9,242.5" fill="#1c4054" /><path d="M7.3 226.3 l10.8 2.2" stroke="#bcf272" stroke-width="1.6" stroke-linecap="round"/><polygon points="230.8,229.6 236.8,225.0 246.0,226.9 239.9,230.4" fill="#2e5871" /><polygon points="246.0,226.9 246.7,230.7 239.9,238.7 239.9,230.4" fill="#15303f" /><polygon points="230.8,229.6 239.9,230.4 239.9,238.7" fill="#1c4054" /><path d="M236.8 225.0 l9.1 1.9" stroke="#bcf272" stroke-width="1.6" stroke-linecap="round"/><polygon points="165.8,310.1 170.6,306.5 177.8,308.0 173.0,310.7" fill="#2e5871" /><polygon points="177.8,308.0 178.4,311.0 173.0,317.3 173.0,310.7" fill="#15303f" /><polygon points="165.8,310.1 173.0,310.7 173.0,317.3" fill="#1c4054" /><path d="M170.6 306.5 l7.2 1.5" stroke="#bcf272" stroke-width="1.6" stroke-linecap="round"/><polygon points="20.9,205.8 56.9,226.6 42.7,249.5" fill="url(#tv2-g2)" /><polygon points="56.9,226.6 75.4,289.8 42.7,249.5" fill="url(#tv2-g3)" /><polygon points="56.9,226.6 92.9,247.4 75.4,289.8" fill="url(#tv2-g4)" /><polygon points="92.9,247.4 130.0,304.9 75.4,289.8" fill="url(#tv2-g5)" /><polygon points="92.9,247.4 130.0,268.8 130.0,304.9" fill="url(#tv2-g6)" /><polygon points="130.0,268.8 167.1,247.4 130.0,304.9" fill="url(#tv2-g7)" /><polygon points="167.1,247.4 215.1,259.1 130.0,304.9" fill="url(#tv2-g8)" /><polygon points="167.1,247.4 203.1,226.6 215.1,259.1" fill="url(#tv2-g9)" /><polygon points="203.1,226.6 239.1,205.8 215.1,259.1" fill="url(#tv2-g10)" /><polyline points="28.2,221.2 130.0,280.0 229.4,222.6" fill="none" stroke="#0e202a" stroke-width="1.2" opacity="0.35" stroke-dasharray="14 5 22 6"/><polyline points="28.2,233.8 130.0,292.6 229.4,235.2" fill="none" stroke="#0e202a" stroke-width="1.2" opacity="0.22" stroke-dasharray="14 5 22 6"/><circle cx="130.0" cy="303.9" r="12.6" fill="url(#tv2-r11)"/><circle cx="44.7" cy="250.5" r="9.0" fill="url(#tv2-r12)"/><circle cx="213.1" cy="260.6" r="9.9" fill="url(#tv2-r13)"/><circle cx="75.4" cy="290.3" r="8.1" fill="url(#tv2-r14)"/><polygon points="124.0,296.9 130.0,294.8 130.0,310.9" fill="#79f6ff" /><polygon points="130.0,294.8 136.0,296.9 130.0,310.9" fill="#39b6bf" /><line x1="130.0" y1="294.8" x2="130.0" y2="310.9" stroke="#ffffff" stroke-width="0.8" opacity="0.7"/><polygon points="40.7,245.5 44.7,244.1 44.7,255.5" fill="#79f6ff" /><polygon points="44.7,244.1 48.7,245.5 44.7,255.5" fill="#39b6bf" /><line x1="44.7" y1="244.1" x2="44.7" y2="255.5" stroke="#ffffff" stroke-width="0.8" opacity="0.7"/><polygon points="208.6,255.1 213.1,253.6 213.1,266.1" fill="#79f6ff" /><polygon points="213.1,253.6 217.6,255.1 213.1,266.1" fill="#39b6bf" /><line x1="213.1" y1="253.6" x2="213.1" y2="266.1" stroke="#ffffff" stroke-width="0.8" opacity="0.7"/><polygon points="71.9,285.8 75.4,284.6 75.4,294.8" fill="#93f7ff" /><polygon points="75.4,284.6 78.9,285.8 75.4,294.8" fill="#54b7bf" /><line x1="75.4" y1="284.6" x2="75.4" y2="294.8" stroke="#ffffff" stroke-width="0.8" opacity="0.7"/><polygon points="20.9,205.8 130.0,268.8 130.0,246.4 20.9,183.4" fill="url(#tv2-g16)" /><polygon points="239.1,205.8 130.0,268.8 130.0,246.4 239.1,183.4" fill="url(#tv2-g17)" /><polygon points="130.0,120.4 239.1,183.4 130.0,246.4 20.9,183.4" fill="url(#tv2-g15)" /><polygon points="20.9,183.4 130.0,246.4 130.0,238.0 20.9,175.0" fill="url(#tv2-g19)" /><polygon points="239.1,183.4 130.0,246.4 130.0,238.0 239.1,175.0" fill="url(#tv2-g20)" /><polygon points="130.0,112.0 239.1,175.0 130.0,238.0 20.9,175.0" fill="url(#tv2-g18)" /><polyline points="20.9,175.0 130.0,112.0 239.1,175.0" fill="none" stroke="#dcf8b5" stroke-width="0.9" stroke-linejoin="round" opacity="0.85"/><line x1="130.0" y1="246.4" x2="130.0" y2="238.0" stroke="#d1f69e" stroke-width="0.8" opacity="0.6"/><polygon points="20.9,175.0 20.9,183.4 26.9,193.9 33.0,193.0 39.1,194.2 45.1,202.6 51.2,207.2 57.3,205.5 63.3,209.2 69.4,217.9 75.4,219.8 81.5,218.5 87.6,224.9 93.6,232.4 99.7,232.0 105.8,232.5 111.8,240.7 117.9,246.0 123.9,244.4 130.0,246.4 130.0,238.0" fill="#97c657" /><polygon points="130.0,238.0 130.0,246.4 136.1,244.5 142.1,240.2 148.2,242.0 154.2,237.9 160.3,229.3 166.4,227.6 172.4,228.8 178.5,222.3 184.6,214.9 190.6,215.4 196.7,214.8 202.7,206.5 208.8,201.4 214.9,203.1 220.9,199.8 227.0,191.1 233.1,188.7 239.1,183.4 239.1,175.0" fill="#7a9f46" /><line x1="142.1" y1="119.0" x2="33.0" y2="182.0" stroke="#789d45" stroke-width="0.5" opacity="0.28"/><line x1="117.9" y1="119.0" x2="227.0" y2="182.0" stroke="#789d45" stroke-width="0.5" opacity="0.28"/><line x1="154.2" y1="126.0" x2="45.1" y2="189.0" stroke="#789d45" stroke-width="0.5" opacity="0.28"/><line x1="105.8" y1="126.0" x2="214.9" y2="189.0" stroke="#789d45" stroke-width="0.5" opacity="0.28"/><line x1="166.4" y1="133.0" x2="57.3" y2="196.0" stroke="#789d45" stroke-width="0.5" opacity="0.28"/><line x1="93.6" y1="133.0" x2="202.7" y2="196.0" stroke="#789d45" stroke-width="0.5" opacity="0.28"/><line x1="178.5" y1="140.0" x2="69.4" y2="203.0" stroke="#789d45" stroke-width="0.5" opacity="0.28"/><line x1="81.5" y1="140.0" x2="190.6" y2="203.0" stroke="#789d45" stroke-width="0.5" opacity="0.28"/><line x1="190.6" y1="147.0" x2="81.5" y2="210.0" stroke="#789d45" stroke-width="0.5" opacity="0.28"/><line x1="69.4" y1="147.0" x2="178.5" y2="210.0" stroke="#789d45" stroke-width="0.5" opacity="0.28"/><line x1="202.7" y1="154.0" x2="93.6" y2="217.0" stroke="#789d45" stroke-width="0.5" opacity="0.28"/><line x1="57.3" y1="154.0" x2="166.4" y2="217.0" stroke="#789d45" stroke-width="0.5" opacity="0.28"/><line x1="214.9" y1="161.0" x2="105.8" y2="224.0" stroke="#789d45" stroke-width="0.5" opacity="0.28"/><line x1="45.1" y1="161.0" x2="154.2" y2="224.0" stroke="#789d45" stroke-width="0.5" opacity="0.28"/><line x1="227.0" y1="168.0" x2="117.9" y2="231.0" stroke="#789d45" stroke-width="0.5" opacity="0.28"/><line x1="33.0" y1="168.0" x2="142.1" y2="231.0" stroke="#789d45" stroke-width="0.5" opacity="0.28"/><polyline points="20.9,175.0 130.0,238.0 239.1,175.0" fill="none" stroke="#ffffff" stroke-width="1.3" opacity="0.55" stroke-linejoin="round"/><polyline points="20.9,175.0 130.0,112.0 239.1,175.0" fill="none" stroke="#d5f7a6" stroke-width="1" opacity="0.6"/><ellipse cx="79.1" cy="176.4" rx="30" ry="15" fill="#1d6a8a"/><ellipse cx="79.1" cy="175.4" rx="27" ry="13" fill="url(#tv2-g21)"/><path d="M67.1 172.4 q6 -3 12 0 M81.1 179.4 q5 -2 10 0" stroke="#ffffff" stroke-width="1.2" fill="none" opacity="0.7"/><ellipse cx="111.8" cy="157.5" rx="5" ry="2.6" fill="#d8d2b8"/><ellipse cx="107.0" cy="165.9" rx="5" ry="2.6" fill="#d8d2b8"/><ellipse cx="108.2" cy="173.6" rx="5" ry="2.6" fill="#d8d2b8"/><ellipse cx="132.4" cy="147.0" rx="32.0" ry="16.0" fill="#0a0820" opacity="0.3"/><ellipse cx="178.5" cy="176.4" rx="22.0" ry="11.0" fill="#0a0820" opacity="0.3"/><ellipse cx="113.0" cy="197.4" rx="26.0" ry="13.0" fill="#0a0820" opacity="0.3"/><polygon points="105.8,145.6 134.8,162.4 134.8,135.8 105.8,119.0" fill="url(#tv2-g23)" /><polygon points="159.1,148.4 134.8,162.4 134.8,135.8 159.1,121.8" fill="url(#tv2-g24)" /><polygon points="130.0,105.0 159.1,121.8 134.8,135.8 105.8,119.0" fill="url(#tv2-g22)" /><polyline points="105.8,119.0 130.0,105.0 159.1,121.8" fill="none" stroke="#fff8ea" stroke-width="0.9" stroke-linejoin="round" opacity="0.85"/><line x1="134.8" y1="162.4" x2="134.8" y2="135.8" stroke="#fff5e4" stroke-width="0.8" opacity="0.6"/><polygon points="115.5,151.2 122.7,155.4 122.7,140.0 115.5,135.8" fill="#a5682a" /><polygon points="126.4,144.9 132.4,148.4 132.4,140.0 126.4,136.5" fill="#ffd23f" /><polygon points="126.4,144.9 132.4,148.4 132.4,140.0 126.4,136.5" fill="none" stroke="#a5682a" stroke-width="0.8"/><polygon points="154.2,138.6 144.5,144.2 144.5,135.8 154.2,130.2" fill="#ffd23f" /><polygon points="154.2,138.6 144.5,144.2 144.5,135.8 154.2,130.2" fill="none" stroke="#a5682a" stroke-width="0.8"/><polygon points="140.9,112.7 145.8,115.5 145.8,100.1 140.9,97.3" fill="url(#tv2-g26)" /><polygon points="150.6,112.7 145.8,115.5 145.8,100.1 150.6,97.3" fill="url(#tv2-g27)" /><polygon points="145.8,94.5 150.6,97.3 145.8,100.1 140.9,97.3" fill="url(#tv2-g25)" /><polyline points="140.9,97.3 145.8,94.5 150.6,97.3" fill="none" stroke="#e09f94" stroke-width="0.9" stroke-linejoin="round" opacity="0.85"/><line x1="145.8" y1="115.5" x2="145.8" y2="100.1" stroke="#d78274" stroke-width="0.8" opacity="0.6"/><polygon points="130.0,102.9 162.7,121.8 148.8,111.6 116.1,92.8" fill="#ff6a4d" /><polygon points="162.7,121.8 134.8,137.9 148.8,111.6" fill="#c2402a" /><polygon points="102.1,119.0 134.8,137.9 148.8,111.6 116.1,92.8" fill="url(#tv2-g28)" /><line x1="105.6" y1="112.3" x2="138.4" y2="131.2" stroke="#a8341f" stroke-width="0.9"/><line x1="109.1" y1="105.7" x2="141.9" y2="124.6" stroke="#a8341f" stroke-width="0.9"/><line x1="112.7" y1="99.0" x2="145.4" y2="118.0" stroke="#a8341f" stroke-width="0.9"/><circle cx="145.8" cy="87.5" r="5" fill="#ffffff" opacity="0.35"/><circle cx="150.6" cy="76.3" r="7" fill="#ffffff" opacity="0.25"/><polygon points="172.9,176.8 178.5,180.0 178.5,171.4 172.9,168.1" fill="url(#tv2-g30)" /><polygon points="184.1,176.8 178.5,180.0 178.5,171.4 184.1,168.1" fill="url(#tv2-g31)" /><polygon points="178.5,164.9 184.1,168.1 178.5,171.4 172.9,168.1" fill="url(#tv2-g29)" /><polygon points="174.3,167.2 179.6,170.3 179.6,161.6 174.3,158.6" fill="url(#tv2-g33)" /><polygon points="184.9,167.2 179.6,170.3 179.6,161.6 184.9,158.6" fill="url(#tv2-g34)" /><polygon points="179.6,155.5 184.9,158.6 179.6,161.6 174.3,158.6" fill="url(#tv2-g32)" /><polygon points="175.6,157.6 180.7,160.6 180.7,151.9 175.6,149.0" fill="url(#tv2-g36)" /><polygon points="185.8,157.6 180.7,160.6 180.7,151.9 185.8,149.0" fill="url(#tv2-g37)" /><polygon points="180.7,146.0 185.8,149.0 180.7,151.9 175.6,149.0" fill="url(#tv2-g35)" /><polygon points="176.9,148.1 181.8,150.9 181.8,142.2 176.9,139.4" fill="url(#tv2-g39)" /><polygon points="186.6,148.1 181.8,150.9 181.8,142.2 186.6,139.4" fill="url(#tv2-g40)" /><polygon points="181.8,136.6 186.6,139.4 181.8,142.2 176.9,139.4" fill="url(#tv2-g38)" /><polygon points="178.3,138.5 182.9,141.1 182.9,132.4 178.3,129.8" fill="url(#tv2-g42)" /><polygon points="187.5,138.5 182.9,141.1 182.9,132.4 187.5,129.8" fill="url(#tv2-g43)" /><polygon points="182.9,127.1 187.5,129.8 182.9,132.4 178.3,129.8" fill="url(#tv2-g41)" /><polygon points="179.6,128.9 184.0,131.4 184.0,122.7 179.6,120.2" fill="url(#tv2-g45)" /><polygon points="188.3,128.9 184.0,131.4 184.0,122.7 188.3,120.2" fill="url(#tv2-g46)" /><polygon points="184.0,117.7 188.3,120.2 184.0,122.7 179.6,120.2" fill="url(#tv2-g44)" /><path d="M184.6 115.5 Q195.6 102.5 214.6 123.5 Q203.6 112.5 184.6 115.5z" fill="#7ff08f"/><path d="M184.6 115.5 Q199.6 107.5 214.6 123.5" fill="none" stroke="#1f8a4c" stroke-width="0.8"/><path d="M184.6 115.5 Q191.2 106.7 205.8 132.0 Q199.2 116.7 184.6 115.5z" fill="#3ccb7a"/><path d="M184.6 115.5 Q195.2 111.7 205.8 132.0" fill="none" stroke="#1f8a4c" stroke-width="0.8"/><path d="M184.6 115.5 Q180.6 108.5 184.6 135.5 Q188.6 118.5 184.6 115.5z" fill="#7ff08f"/><path d="M184.6 115.5 Q184.6 113.5 184.6 135.5" fill="none" stroke="#1f8a4c" stroke-width="0.8"/><path d="M184.6 115.5 Q170.0 106.7 163.3 132.0 Q178.0 116.7 184.6 115.5z" fill="#3ccb7a"/><path d="M184.6 115.5 Q174.0 111.7 163.3 132.0" fill="none" stroke="#1f8a4c" stroke-width="0.8"/><path d="M184.6 115.5 Q165.6 102.5 154.6 123.5 Q173.6 112.5 184.6 115.5z" fill="#7ff08f"/><path d="M184.6 115.5 Q169.6 107.5 154.6 123.5" fill="none" stroke="#1f8a4c" stroke-width="0.8"/><path d="M184.6 115.5 Q170.0 98.3 163.3 115.0 Q178.0 108.3 184.6 115.5z" fill="#3ccb7a"/><path d="M184.6 115.5 Q174.0 103.3 163.3 115.0" fill="none" stroke="#1f8a4c" stroke-width="0.8"/><path d="M184.6 115.5 Q180.6 96.5 184.6 111.5 Q188.6 106.5 184.6 115.5z" fill="#7ff08f"/><path d="M184.6 115.5 Q184.6 101.5 184.6 111.5" fill="none" stroke="#1f8a4c" stroke-width="0.8"/><path d="M184.6 115.5 Q191.2 98.3 205.8 115.0 Q199.2 108.3 184.6 115.5z" fill="#3ccb7a"/><path d="M184.6 115.5 Q195.2 103.3 205.8 115.0" fill="none" stroke="#1f8a4c" stroke-width="0.8"/><circle cx="181.6" cy="119.5" r="3" fill="#6b3d12"/><circle cx="187.6" cy="120.5" r="3" fill="#7a4818"/><ellipse cx="31.8" cy="176.6" rx="2.9" ry="1.7" fill="#658496"/><ellipse cx="30.9" cy="175.8" rx="1.1" ry="0.6" fill="#ffffff" opacity="0.25"/><ellipse cx="222.8" cy="177.5" rx="3.1" ry="1.8" fill="#658496"/><ellipse cx="221.9" cy="176.7" rx="1.2" ry="0.6" fill="#ffffff" opacity="0.25"/><path d="M48.1 184.3 Q48.8 180.7 49.9 178.3 Q49.9 181.3 50.5 184.3 Z" fill="#94c155"/><path d="M50.1 184.3 Q50.8 178.9 51.9 175.3 Q51.9 179.8 52.5 184.3 Z" fill="#caf590"/><path d="M52.6 184.3 Q53.3 180.1 54.4 177.3 Q54.4 180.8 55.0 184.3 Z" fill="#94c155"/><path d="M54.6 184.3 Q55.3 181.3 56.4 179.3 Q56.4 181.8 57.0 184.3 Z" fill="#caf590"/><ellipse cx="66.6" cy="194.1" rx="3.2" ry="1.9" fill="#658496"/><ellipse cx="65.6" cy="193.3" rx="1.3" ry="0.6" fill="#ffffff" opacity="0.25"/><line x1="106.4" y1="198.5" x2="106.4" y2="174.7" stroke="#1b6a80" stroke-width="2"/><line x1="117.3" y1="204.8" x2="117.3" y2="180.9" stroke="#1b6a80" stroke-width="2"/><circle cx="111.8" cy="186.2" r="3.4" fill="#ffd23f"/><circle cx="114.8" cy="196.4" r="3.4" fill="#ff4f9a"/><path d="M113.6 171.8 q4.2 -10 8.5 4.9" fill="none" stroke="#1b1840" stroke-width="2.4"/><path d="M187.4 198.2 Q188.1 194.6 189.2 192.2 Q189.2 195.2 189.8 198.2 Z" fill="#94c155"/><path d="M189.4 198.2 Q190.1 192.8 191.2 189.2 Q191.2 193.7 191.8 198.2 Z" fill="#caf590"/><path d="M191.9 198.2 Q192.6 194.0 193.7 191.2 Q193.7 194.7 194.3 198.2 Z" fill="#94c155"/><path d="M193.9 198.2 Q194.6 195.2 195.7 193.2 Q195.7 195.7 196.3 198.2 Z" fill="#caf590"/><line x1="183.3" y1="197.4" x2="183.3" y2="152.6" stroke="#8a5422" stroke-width="3"/><path d="M181.3 154.6 h22 l6 5 l-6 5 h-22 z" fill="#ff4f9a"/><path d="M185.3 166.6 h-22 l-6 5 l6 5 h22 z" fill="#4df3ff"/><polygon points="100.3,195.0 123.3,208.2 123.3,184.4 100.3,171.2" fill="url(#tv2-g48)" /><polygon points="134.8,201.6 123.3,208.2 123.3,184.4 134.8,177.8" fill="url(#tv2-g49)" /><polygon points="111.8,164.5 134.8,177.8 123.3,184.4 100.3,171.2" fill="url(#tv2-g47)" /><polyline points="100.3,171.2 111.8,164.5 134.8,177.8" fill="none" stroke="#a6f9ff" stroke-width="0.9" stroke-linejoin="round" opacity="0.85"/><line x1="123.3" y1="208.2" x2="123.3" y2="184.4" stroke="#8bf7ff" stroke-width="0.8" opacity="0.6"/><path d="M83.7 204.5 Q84.4 200.9 85.5 198.5 Q85.5 201.5 86.1 204.5 Z" fill="#94c155"/><path d="M85.7 204.5 Q86.4 199.1 87.5 195.5 Q87.5 200.0 88.1 204.5 Z" fill="#caf590"/><path d="M88.2 204.5 Q88.9 200.3 90.0 197.5 Q90.0 201.0 90.6 204.5 Z" fill="#94c155"/><path d="M90.2 204.5 Q90.9 201.5 92.0 199.5 Q92.0 202.0 92.6 204.5 Z" fill="#caf590"/><line x1="101.7" y1="217.1" x2="101.7" y2="212.1" stroke="#2f8a4a" stroke-width="1"/><circle cx="103.5" cy="211.1" r="1.5" fill="#4df3ff"/><circle cx="102.3" cy="212.8" r="1.5" fill="#4df3ff"/><circle cx="100.3" cy="212.1" r="1.5" fill="#4df3ff"/><circle cx="100.3" cy="210.0" r="1.5" fill="#4df3ff"/><circle cx="102.3" cy="209.4" r="1.5" fill="#4df3ff"/><circle cx="101.7" cy="211.1" r="1.1" fill="#fff6b0"/><polygon points="120.3,214.2 132.4,221.2 132.4,207.2 120.3,200.2" fill="url(#tv2-g51)" /><polygon points="143.3,214.9 132.4,221.2 132.4,207.2 143.3,200.9" fill="url(#tv2-g52)" /><polygon points="131.2,193.9 143.3,200.9 132.4,207.2 120.3,200.2" fill="url(#tv2-g50)" /><polyline points="120.3,200.2 131.2,193.9 143.3,200.9" fill="none" stroke="#ffe89f" stroke-width="0.9" stroke-linejoin="round" opacity="0.85"/><line x1="132.4" y1="221.2" x2="132.4" y2="207.2" stroke="#ffe182" stroke-width="0.8" opacity="0.6"/><line x1="141.5" y1="220.7" x2="141.5" y2="215.7" stroke="#2f8a4a" stroke-width="1"/><circle cx="143.3" cy="214.7" r="1.5" fill="#ffffff"/><circle cx="142.1" cy="216.4" r="1.5" fill="#ffffff"/><circle cx="140.1" cy="215.7" r="1.5" fill="#ffffff"/><circle cx="140.1" cy="213.6" r="1.5" fill="#ffffff"/><circle cx="142.1" cy="212.9" r="1.5" fill="#ffffff"/><circle cx="141.5" cy="214.7" r="1.1" fill="#fff6b0"/><line x1="118.7" y1="221.2" x2="118.7" y2="216.2" stroke="#2f8a4a" stroke-width="1"/><circle cx="120.5" cy="215.2" r="1.5" fill="#ffffff"/><circle cx="119.2" cy="216.9" r="1.5" fill="#ffffff"/><circle cx="117.2" cy="216.3" r="1.5" fill="#ffffff"/><circle cx="117.2" cy="214.2" r="1.5" fill="#ffffff"/><circle cx="119.2" cy="213.5" r="1.5" fill="#ffffff"/><circle cx="118.7" cy="215.2" r="1.1" fill="#fff6b0"/><path d="M128.9 231.5 Q129.6 227.9 130.7 225.5 Q130.7 228.5 131.3 231.5 Z" fill="#94c155"/><path d="M130.9 231.5 Q131.6 226.1 132.7 222.5 Q132.7 227.0 133.3 231.5 Z" fill="#caf590"/><path d="M133.4 231.5 Q134.1 227.3 135.2 224.5 Q135.2 228.0 135.8 231.5 Z" fill="#94c155"/><path d="M135.4 231.5 Q136.1 228.5 137.2 226.5 Q137.2 229.0 137.8 231.5 Z" fill="#caf590"/><circle cx="100.5" cy="60.7" r="2.1" fill="#ffffff" opacity="0.41"/><circle cx="42.1" cy="57.6" r="2.4" fill="#ffffff" opacity="0.53"/><circle cx="121.3" cy="49.3" r="1.6" fill="#ffffff" opacity="0.58"/><circle cx="92.5" cy="26.9" r="1.9" fill="#ffffff" opacity="0.55"/><circle cx="105.4" cy="67.2" r="1.2" fill="#ffffff" opacity="0.68"/><circle cx="177.0" cy="21.0" r="1.5" fill="#ffffff" opacity="0.80"/><circle cx="52.4" cy="47.6" r="48" fill="url(#tv2-r53)"/><g clip-path="url(#tv2-env)"><rect x="20.4" y="26.6" width="9.2" height="40" fill="#ff4f9a"/><rect x="29.6" y="26.6" width="9.2" height="40" fill="#ffd23f"/><rect x="38.8" y="26.6" width="9.2" height="40" fill="#ff4f9a"/><rect x="48.0" y="26.6" width="9.2" height="40" fill="#ffd23f"/><rect x="57.2" y="26.6" width="9.2" height="40" fill="#ff4f9a"/><rect x="66.4" y="26.6" width="9.2" height="40" fill="#ffd23f"/><rect x="75.6" y="26.6" width="9.2" height="40" fill="#ff4f9a"/><rect x="20.4" y="26.6" width="64" height="40" opacity="0.22" fill="url(#tv2-g54)"/></g><path d="M36.4 51.6 c-8 -6 -10 -24 -4 -30" fill="none" stroke="#ffffff" stroke-width="2" opacity="0.6"/><line x1="43.4" y1="63.6" x2="46.4" y2="76.6" stroke="#1b1840" stroke-width="1.2"/><line x1="61.4" y1="63.6" x2="58.4" y2="76.6" stroke="#1b1840" stroke-width="1.2"/><rect x="45.4" y="76.6" width="14" height="10" rx="2" fill="#a5682a"/><path d="M45.4 79.6 h14" stroke="#7a4818" stroke-width="1.4"/><circle cx="52.4" cy="69.6" r="4" fill="url(#tv2-r55)"/><circle cx="222.1" cy="72.8" r="14.4" fill="url(#tv2-r56)"/><polygon points="222.1,66.8 223.5,71.5 228.1,72.8 223.5,74.1 222.1,78.8 220.8,74.1 216.1,72.8 220.8,71.5" fill="#ffffff" /></svg>